<svg width="48" height="32" viewBox="0 0 48 32" fill="none" xmlns="http://www.w3.org/2000/svg">
<path opacity="0.4" d="M47.0744 20.427L40.2802 10.427C40.0988 10.1596 39.8021 10.0002 39.4853 10H35.603V18C35.603 20.7614 33.4302 23 30.75 23H14.25V29C14.25 30.6569 15.5536 32 17.1618 32H39.4853C39.8024 32.0001 40.0995 31.8407 40.2812 31.573L47.0753 21.573C47.3086 21.2287 47.3082 20.7709 47.0744 20.427Z" fill="#F58121"/>
<path d="M30.3382 22H8.01429C7.69775 22 7.40107 21.8411 7.21937 21.574L0.42514 11.574C0.19162 11.2299 0.19162 10.7721 0.42514 10.428L7.21937 0.428C7.40064 0.160186 7.69739 0.000409487 8.01429 0H30.3382C31.9463 0 33.25 1.34315 33.25 3V19C33.25 20.6569 31.9463 22 30.3382 22Z" fill="#F58121"/>
</svg>
