<svg xmlns="http://www.w3.org/2000/svg" width="169" height="154" viewBox="0 0 169 154" fill="none">
              <path fill-rule="evenodd" clip-rule="evenodd"
                d="M4.47367 27.5797C5.55336 27.5797 6.61251 27.1425 7.37609 26.3768C8.14172 25.6132 8.57893 24.5561 8.57893 23.4744C8.57893 22.3927 8.14172 21.3356 7.37609 20.572C6.61251 19.8064 5.55336 19.3691 4.47367 19.3691C3.39193 19.3691 2.33483 19.8064 1.5692 20.572C0.805619 21.3356 0.368408 22.3927 0.368408 23.4744C0.368408 24.5561 0.805619 25.6132 1.5692 26.3768C2.33483 27.1425 3.39193 27.5797 4.47367 27.5797Z"
                fill="#039349" />
              <path fill-rule="evenodd" clip-rule="evenodd"
                d="M49.6214 27.5797H49.6419C51.9044 27.5797 53.7369 25.7405 53.7369 23.4744C53.7369 21.2083 51.9044 19.3691 49.6419 19.3691H49.6214C47.3609 19.3691 45.5264 21.2083 45.5264 23.4744C45.5264 25.7405 47.3609 27.5797 49.6214 27.5797Z"
                fill="#039349" />
              <path fill-rule="evenodd" clip-rule="evenodd"
                d="M27.7266 27.5797H27.7471C30.0075 27.5797 31.8421 25.7405 31.8421 23.4744C31.8421 21.2083 30.0075 19.3691 27.7471 19.3691H27.7266C25.4662 19.3691 23.6316 21.2083 23.6316 23.4744C23.6316 25.7405 25.4662 27.5797 27.7266 27.5797Z"
                fill="#039349" />
              <path fill-rule="evenodd" clip-rule="evenodd"
                d="M72.8947 27.5797C73.9744 27.5797 75.0335 27.1425 75.7971 26.3768C76.5627 25.6132 77 24.5561 77 23.4744C77 22.3927 76.5627 21.3356 75.7971 20.572C75.0335 19.8064 73.9744 19.3691 72.8947 19.3691C71.813 19.3691 70.7558 19.8064 69.9902 20.572C69.2266 21.3356 68.7894 22.3927 68.7894 23.4744C68.7894 24.5561 69.2266 25.6132 69.9902 26.3768C70.7558 27.1425 71.813 27.5797 72.8947 27.5797Z"
                fill="#039349" />
              <path fill-rule="evenodd" clip-rule="evenodd"
                d="M96.1579 27.5797C97.2396 27.5797 98.2967 27.1425 99.0623 26.3768C99.8259 25.6132 100.263 24.5561 100.263 23.4744C100.263 22.3927 99.8259 21.3356 99.0623 20.572C98.2967 19.8064 97.2396 19.3691 96.1579 19.3691C95.0782 19.3691 94.019 19.8064 93.2555 20.572C92.4898 21.3356 92.0526 22.3927 92.0526 23.4744C92.0526 24.5561 92.4898 25.6132 93.2555 26.3768C94.019 27.1425 95.0782 27.5797 96.1579 27.5797Z"
                fill="#039349" />
              <path fill-rule="evenodd" clip-rule="evenodd"
                d="M141.306 27.5797H141.326C143.589 27.5797 145.421 25.7405 145.421 23.4744C145.421 21.2083 143.589 19.3691 141.326 19.3691H141.306C139.045 19.3691 137.211 21.2083 137.211 23.4744C137.211 25.7405 139.045 27.5797 141.306 27.5797Z"
                fill="#039349" />
              <path fill-rule="evenodd" clip-rule="evenodd"
                d="M118.042 27.5797H118.063C120.323 27.5797 122.158 25.7405 122.158 23.4744C122.158 21.2083 120.323 19.3691 118.063 19.3691H118.042C115.782 19.3691 113.947 21.2083 113.947 23.4744C113.947 25.7405 115.782 27.5797 118.042 27.5797Z"
                fill="#039349" />
              <mask id="mask0_6_1565" style="mask-type:luminance" maskUnits="userSpaceOnUse" x="159" y="19" width="10"
                height="9">
                <path fill-rule="evenodd" clip-rule="evenodd" d="M159.519 19.0781H168.277V27.836H159.519V19.0781Z"
                  fill="white" />
              </mask>
              <g mask="url(#mask0_6_1565)">
                <path fill-rule="evenodd" clip-rule="evenodd"
                  d="M163.898 27.836C165.05 27.836 166.18 27.3697 166.994 26.553C167.811 25.7385 168.277 24.6109 168.277 23.4571C168.277 22.3032 167.811 21.1756 166.994 20.3612C166.18 19.5445 165.05 19.0781 163.898 19.0781C162.744 19.0781 161.617 19.5445 160.8 20.3612C159.986 21.1756 159.519 22.3032 159.519 23.4571C159.519 24.6109 159.986 25.7385 160.8 26.553C161.617 27.3697 162.744 27.836 163.898 27.836Z"
                  fill="#039349" />
              </g>
              <path fill-rule="evenodd" clip-rule="evenodd"
                d="M4.47367 9.78963C5.55336 9.78963 6.61251 9.35242 7.37609 8.58679C8.14172 7.82321 8.57893 6.76405 8.57893 5.68436C8.57893 4.60263 8.14172 3.54552 7.37609 2.77989C6.61251 2.01631 5.55336 1.5791 4.47367 1.5791C3.39193 1.5791 2.33483 2.01631 1.5692 2.77989C0.805619 3.54552 0.368408 4.60263 0.368408 5.68436C0.368408 6.76405 0.805619 7.82321 1.5692 8.58679C2.33483 9.35242 3.39193 9.78963 4.47367 9.78963Z"
                fill="#039349" />
              <path fill-rule="evenodd" clip-rule="evenodd"
                d="M49.6214 9.78963H49.6419C51.9044 9.78963 53.7369 7.95047 53.7369 5.68436C53.7369 3.41826 51.9044 1.5791 49.6419 1.5791H49.6214C47.3609 1.5791 45.5264 3.41826 45.5264 5.68436C45.5264 7.95047 47.3609 9.78963 49.6214 9.78963Z"
                fill="#039349" />
              <path fill-rule="evenodd" clip-rule="evenodd"
                d="M27.7266 9.78963H27.7471C30.0075 9.78963 31.8421 7.95047 31.8421 5.68436C31.8421 3.41826 30.0075 1.5791 27.7471 1.5791H27.7266C25.4662 1.5791 23.6316 3.41826 23.6316 5.68436C23.6316 7.95047 25.4662 9.78963 27.7266 9.78963Z"
                fill="#039349" />
              <path fill-rule="evenodd" clip-rule="evenodd"
                d="M72.8947 9.78963C73.9744 9.78963 75.0335 9.35242 75.7971 8.58679C76.5627 7.82321 77 6.76405 77 5.68436C77 4.60263 76.5627 3.54552 75.7971 2.77989C75.0335 2.01631 73.9744 1.5791 72.8947 1.5791C71.813 1.5791 70.7558 2.01631 69.9902 2.77989C69.2266 3.54552 68.7894 4.60263 68.7894 5.68436C68.7894 6.76405 69.2266 7.82321 69.9902 8.58679C70.7558 9.35242 71.813 9.78963 72.8947 9.78963Z"
                fill="#039349" />
              <path fill-rule="evenodd" clip-rule="evenodd"
                d="M96.1579 9.78963C97.2396 9.78963 98.2967 9.35242 99.0623 8.58679C99.8259 7.82321 100.263 6.76405 100.263 5.68436C100.263 4.60263 99.8259 3.54552 99.0623 2.77989C98.2967 2.01631 97.2396 1.5791 96.1579 1.5791C95.0782 1.5791 94.019 2.01631 93.2555 2.77989C92.4898 3.54552 92.0526 4.60263 92.0526 5.68436C92.0526 6.76405 92.4898 7.82321 93.2555 8.58679C94.019 9.35242 95.0782 9.78963 96.1579 9.78963Z"
                fill="#039349" />
              <path fill-rule="evenodd" clip-rule="evenodd"
                d="M141.306 9.78963H141.326C143.589 9.78963 145.421 7.95047 145.421 5.68436C145.421 3.41826 143.589 1.5791 141.326 1.5791H141.306C139.045 1.5791 137.211 3.41826 137.211 5.68436C137.211 7.95047 139.045 9.78963 141.306 9.78963Z"
                fill="#039349" />
              <path fill-rule="evenodd" clip-rule="evenodd"
                d="M118.042 9.78963H118.063C120.323 9.78963 122.158 7.95047 122.158 5.68436C122.158 3.41826 120.323 1.5791 118.063 1.5791H118.042C115.782 1.5791 113.947 3.41826 113.947 5.68436C113.947 7.95047 115.782 9.78963 118.042 9.78963Z"
                fill="#039349" />
              <mask id="mask1_6_1565" style="mask-type:luminance" maskUnits="userSpaceOnUse" x="159" y="0" width="10"
                height="10">
                <path fill-rule="evenodd" clip-rule="evenodd" d="M159.519 0.817383H168.277V9.57528H159.519V0.817383Z"
                  fill="white" />
              </mask>
              <g mask="url(#mask1_6_1565)">
                <path fill-rule="evenodd" clip-rule="evenodd"
                  d="M163.898 9.57528C165.05 9.57528 166.18 9.10892 166.994 8.29225C167.811 7.47776 168.277 6.34799 168.277 5.19633C168.277 4.04248 167.811 2.9149 166.994 2.09822C166.18 1.28374 165.05 0.817383 163.898 0.817383C162.744 0.817383 161.617 1.28374 160.8 2.09822C159.986 2.9149 159.519 4.04248 159.519 5.19633C159.519 6.34799 159.986 7.47776 160.8 8.29225C161.617 9.10892 162.744 9.57528 163.898 9.57528Z"
                  fill="#039349" />
              </g>
              <path fill-rule="evenodd" clip-rule="evenodd"
                d="M4.47367 45.3687C5.55336 45.3687 6.61251 44.9315 7.37609 44.1659C8.14172 43.4023 8.57893 42.3452 8.57893 41.2635C8.57893 40.1838 8.14172 39.1246 7.37609 38.361C6.61251 37.5954 5.55336 37.1582 4.47367 37.1582C3.39193 37.1582 2.33483 37.5954 1.5692 38.361C0.805619 39.1246 0.368408 40.1838 0.368408 41.2635C0.368408 42.3452 0.805619 43.4023 1.5692 44.1659C2.33483 44.9315 3.39193 45.3687 4.47367 45.3687Z"
                fill="#039349" />
              <path fill-rule="evenodd" clip-rule="evenodd"
                d="M49.6214 45.3687H49.6419C51.9044 45.3687 53.7369 43.5296 53.7369 41.2635C53.7369 38.9974 51.9044 37.1582 49.6419 37.1582H49.6214C47.3609 37.1582 45.5264 38.9974 45.5264 41.2635C45.5264 43.5296 47.3609 45.3687 49.6214 45.3687Z"
                fill="#039349" />
              <path fill-rule="evenodd" clip-rule="evenodd"
                d="M27.7266 45.3687H27.7471C30.0075 45.3687 31.8421 43.5296 31.8421 41.2635C31.8421 38.9974 30.0075 37.1582 27.7471 37.1582H27.7266C25.4662 37.1582 23.6316 38.9974 23.6316 41.2635C23.6316 43.5296 25.4662 45.3687 27.7266 45.3687Z"
                fill="#039349" />
              <path fill-rule="evenodd" clip-rule="evenodd"
                d="M72.8947 45.3687C73.9744 45.3687 75.0335 44.9315 75.7971 44.1659C76.5627 43.4023 77 42.3452 77 41.2635C77 40.1838 76.5627 39.1246 75.7971 38.361C75.0335 37.5954 73.9744 37.1582 72.8947 37.1582C71.813 37.1582 70.7558 37.5954 69.9902 38.361C69.2266 39.1246 68.7894 40.1838 68.7894 41.2635C68.7894 42.3452 69.2266 43.4023 69.9902 44.1659C70.7558 44.9315 71.813 45.3687 72.8947 45.3687Z"
                fill="#039349" />
              <path fill-rule="evenodd" clip-rule="evenodd"
                d="M96.1579 45.3687C97.2396 45.3687 98.2967 44.9315 99.0623 44.1659C99.8259 43.4023 100.263 42.3452 100.263 41.2635C100.263 40.1838 99.8259 39.1246 99.0623 38.361C98.2967 37.5954 97.2396 37.1582 96.1579 37.1582C95.0782 37.1582 94.019 37.5954 93.2555 38.361C92.4898 39.1246 92.0526 40.1838 92.0526 41.2635C92.0526 42.3452 92.4898 43.4023 93.2555 44.1659C94.019 44.9315 95.0782 45.3687 96.1579 45.3687Z"
                fill="#039349" />
              <path fill-rule="evenodd" clip-rule="evenodd"
                d="M141.306 45.3687H141.326C143.589 45.3687 145.421 43.5296 145.421 41.2635C145.421 38.9974 143.589 37.1582 141.326 37.1582H141.306C139.045 37.1582 137.211 38.9974 137.211 41.2635C137.211 43.5296 139.045 45.3687 141.306 45.3687Z"
                fill="#039349" />
              <path fill-rule="evenodd" clip-rule="evenodd"
                d="M118.042 45.3687H118.063C120.323 45.3687 122.158 43.5296 122.158 41.2635C122.158 38.9974 120.323 37.1582 118.063 37.1582H118.042C115.782 37.1582 113.947 38.9974 113.947 41.2635C113.947 43.5296 115.782 45.3687 118.042 45.3687Z"
                fill="#039349" />
              <mask id="mask2_6_1565" style="mask-type:luminance" maskUnits="userSpaceOnUse" x="159" y="37" width="10"
                height="10">
                <path fill-rule="evenodd" clip-rule="evenodd" d="M159.519 37.3398H168.277V46.0977H159.519V37.3398Z"
                  fill="white" />
              </mask>
              <g mask="url(#mask2_6_1565)">
                <path fill-rule="evenodd" clip-rule="evenodd"
                  d="M163.898 46.0977C165.05 46.0977 166.18 45.6314 166.994 44.8147C167.811 44.0002 168.277 42.8726 168.277 41.7188C168.277 40.5671 167.811 39.4374 166.994 38.6229C166.18 37.8062 165.05 37.3398 163.898 37.3398C162.744 37.3398 161.617 37.8062 160.8 38.6229C159.986 39.4374 159.519 40.5671 159.519 41.7188C159.519 42.8726 159.986 44.0002 160.8 44.8147C161.617 45.6314 162.744 46.0977 163.898 46.0977Z"
                  fill="#039349" />
              </g>
              <path fill-rule="evenodd" clip-rule="evenodd"
                d="M4.47367 63.1578C5.55336 63.1578 6.61251 62.7206 7.37609 61.9549C8.14172 61.1914 8.57893 60.1343 8.57893 59.0525C8.57893 57.9708 8.14172 56.9137 7.37609 56.1501C6.61251 55.3845 5.55336 54.9473 4.47367 54.9473C3.39193 54.9473 2.33483 55.3845 1.5692 56.1501C0.805619 56.9137 0.368408 57.9708 0.368408 59.0525C0.368408 60.1343 0.805619 61.1914 1.5692 61.9549C2.33483 62.7206 3.39193 63.1578 4.47367 63.1578Z"
                fill="#039349" />
              <path fill-rule="evenodd" clip-rule="evenodd"
                d="M49.6214 63.1578H49.6419C51.9044 63.1578 53.7369 61.3186 53.7369 59.0525C53.7369 56.7864 51.9044 54.9473 49.6419 54.9473H49.6214C47.3609 54.9473 45.5264 56.7864 45.5264 59.0525C45.5264 61.3186 47.3609 63.1578 49.6214 63.1578Z"
                fill="#039349" />
              <path fill-rule="evenodd" clip-rule="evenodd"
                d="M27.7266 63.1578H27.7471C30.0075 63.1578 31.8421 61.3186 31.8421 59.0525C31.8421 56.7864 30.0075 54.9473 27.7471 54.9473H27.7266C25.4662 54.9473 23.6316 56.7864 23.6316 59.0525C23.6316 61.3186 25.4662 63.1578 27.7266 63.1578Z"
                fill="#039349" />
              <path fill-rule="evenodd" clip-rule="evenodd"
                d="M72.8947 63.1578C73.9744 63.1578 75.0335 62.7206 75.7971 61.9549C76.5627 61.1914 77 60.1343 77 59.0525C77 57.9708 76.5627 56.9137 75.7971 56.1501C75.0335 55.3845 73.9744 54.9473 72.8947 54.9473C71.813 54.9473 70.7558 55.3845 69.9902 56.1501C69.2266 56.9137 68.7894 57.9708 68.7894 59.0525C68.7894 60.1343 69.2266 61.1914 69.9902 61.9549C70.7558 62.7206 71.813 63.1578 72.8947 63.1578Z"
                fill="#039349" />
              <path fill-rule="evenodd" clip-rule="evenodd"
                d="M96.1579 63.1578C97.2396 63.1578 98.2967 62.7206 99.0623 61.9549C99.8259 61.1914 100.263 60.1343 100.263 59.0525C100.263 57.9708 99.8259 56.9137 99.0623 56.1501C98.2967 55.3845 97.2396 54.9473 96.1579 54.9473C95.0782 54.9473 94.019 55.3845 93.2555 56.1501C92.4898 56.9137 92.0526 57.9708 92.0526 59.0525C92.0526 60.1343 92.4898 61.1914 93.2555 61.9549C94.019 62.7206 95.0782 63.1578 96.1579 63.1578Z"
                fill="#039349" />
              <path fill-rule="evenodd" clip-rule="evenodd"
                d="M141.306 63.1578H141.326C143.589 63.1578 145.421 61.3186 145.421 59.0525C145.421 56.7864 143.589 54.9473 141.326 54.9473H141.306C139.045 54.9473 137.211 56.7864 137.211 59.0525C137.211 61.3186 139.045 63.1578 141.306 63.1578Z"
                fill="#039349" />
              <path fill-rule="evenodd" clip-rule="evenodd"
                d="M118.042 63.1578H118.063C120.323 63.1578 122.158 61.3186 122.158 59.0525C122.158 56.7864 120.323 54.9473 118.063 54.9473H118.042C115.782 54.9473 113.947 56.7864 113.947 59.0525C113.947 61.3186 115.782 63.1578 118.042 63.1578Z"
                fill="#039349" />
              <mask id="mask3_6_1565" style="mask-type:luminance" maskUnits="userSpaceOnUse" x="159" y="55" width="10"
                height="10">
                <path fill-rule="evenodd" clip-rule="evenodd" d="M159.519 55.6006H168.277V64.3585H159.519V55.6006Z"
                  fill="white" />
              </mask>
              <g mask="url(#mask3_6_1565)">
                <path fill-rule="evenodd" clip-rule="evenodd"
                  d="M163.898 64.3585C165.05 64.3585 166.18 63.8921 166.994 63.0754C167.811 62.261 168.277 61.1334 168.277 59.9795C168.277 58.8257 167.811 57.6981 166.994 56.8836C166.18 56.0669 165.05 55.6006 163.898 55.6006C162.744 55.6006 161.617 56.0669 160.8 56.8836C159.986 57.6981 159.519 58.8257 159.519 59.9795C159.519 61.1334 159.986 62.261 160.8 63.0754C161.617 63.8921 162.744 64.3585 163.898 64.3585Z"
                  fill="#039349" />
              </g>
              <path fill-rule="evenodd" clip-rule="evenodd"
                d="M4.47367 82.316C5.55336 82.316 6.61251 81.8788 7.37609 81.1132C8.14172 80.3496 8.57893 79.2925 8.57893 78.2107C8.57893 77.131 8.14172 76.0719 7.37609 75.3083C6.61251 74.5427 5.55336 74.1055 4.47367 74.1055C3.39193 74.1055 2.33483 74.5427 1.5692 75.3083C0.805619 76.0719 0.368408 77.131 0.368408 78.2107C0.368408 79.2925 0.805619 80.3496 1.5692 81.1132C2.33483 81.8788 3.39193 82.316 4.47367 82.316Z"
                fill="#039349" />
              <path fill-rule="evenodd" clip-rule="evenodd"
                d="M49.6214 82.316H49.6419C51.9044 82.316 53.7369 80.4768 53.7369 78.2107C53.7369 75.9446 51.9044 74.1055 49.6419 74.1055H49.6214C47.3609 74.1055 45.5264 75.9446 45.5264 78.2107C45.5264 80.4768 47.3609 82.316 49.6214 82.316Z"
                fill="#039349" />
              <path fill-rule="evenodd" clip-rule="evenodd"
                d="M27.7266 82.316H27.7471C30.0075 82.316 31.8421 80.4768 31.8421 78.2107C31.8421 75.9446 30.0075 74.1055 27.7471 74.1055H27.7266C25.4662 74.1055 23.6316 75.9446 23.6316 78.2107C23.6316 80.4768 25.4662 82.316 27.7266 82.316Z"
                fill="#039349" />
              <path fill-rule="evenodd" clip-rule="evenodd"
                d="M72.8947 82.316C73.9744 82.316 75.0335 81.8788 75.7971 81.1132C76.5627 80.3496 77 79.2925 77 78.2107C77 77.131 76.5627 76.0719 75.7971 75.3083C75.0335 74.5427 73.9744 74.1055 72.8947 74.1055C71.813 74.1055 70.7558 74.5427 69.9902 75.3083C69.2266 76.0719 68.7894 77.131 68.7894 78.2107C68.7894 79.2925 69.2266 80.3496 69.9902 81.1132C70.7558 81.8788 71.813 82.316 72.8947 82.316Z"
                fill="#039349" />
              <path fill-rule="evenodd" clip-rule="evenodd"
                d="M96.1579 82.316C97.2396 82.316 98.2967 81.8788 99.0623 81.1132C99.8259 80.3496 100.263 79.2925 100.263 78.2107C100.263 77.131 99.8259 76.0719 99.0623 75.3083C98.2967 74.5427 97.2396 74.1055 96.1579 74.1055C95.0782 74.1055 94.019 74.5427 93.2555 75.3083C92.4898 76.0719 92.0526 77.131 92.0526 78.2107C92.0526 79.2925 92.4898 80.3496 93.2555 81.1132C94.019 81.8788 95.0782 82.316 96.1579 82.316Z"
                fill="#039349" />
              <path fill-rule="evenodd" clip-rule="evenodd"
                d="M141.306 82.316H141.326C143.589 82.316 145.421 80.4768 145.421 78.2107C145.421 75.9446 143.589 74.1055 141.326 74.1055H141.306C139.045 74.1055 137.211 75.9446 137.211 78.2107C137.211 80.4768 139.045 82.316 141.306 82.316Z"
                fill="#039349" />
              <path fill-rule="evenodd" clip-rule="evenodd"
                d="M118.042 82.316H118.063C120.323 82.316 122.158 80.4768 122.158 78.2107C122.158 75.9446 120.323 74.1055 118.063 74.1055H118.042C115.782 74.1055 113.947 75.9446 113.947 78.2107C113.947 80.4768 115.782 82.316 118.042 82.316Z"
                fill="#039349" />
              <mask id="mask4_6_1565" style="mask-type:luminance" maskUnits="userSpaceOnUse" x="159" y="73" width="10"
                height="9">
                <path fill-rule="evenodd" clip-rule="evenodd" d="M159.519 73.04H168.277V81.7979H159.519V73.04Z"
                  fill="white" />
              </mask>
              <g mask="url(#mask4_6_1565)">
                <path fill-rule="evenodd" clip-rule="evenodd"
                  d="M163.898 81.7979C165.05 81.7979 166.18 81.3316 166.994 80.5149C167.811 79.7004 168.277 78.5728 168.277 77.419C168.277 76.2673 167.811 75.1376 166.994 74.3231C166.18 73.5064 165.05 73.04 163.898 73.04C162.744 73.04 161.617 73.5064 160.8 74.3231C159.986 75.1376 159.519 76.2673 159.519 77.419C159.519 78.5728 159.986 79.7004 160.8 80.5149C161.617 81.3316 162.744 81.7979 163.898 81.7979Z"
                  fill="#039349" />
              </g>
              <path fill-rule="evenodd" clip-rule="evenodd"
                d="M4.47367 100.106C5.55336 100.106 6.61251 99.6688 7.37609 98.9052C8.14172 98.1396 8.57893 97.0825 8.57893 96.0008C8.57893 94.9211 8.14172 93.8619 7.37609 93.0983C6.61251 92.3327 5.55336 91.8955 4.47367 91.8955C3.39193 91.8955 2.33483 92.3327 1.5692 93.0983C0.805619 93.8619 0.368408 94.9211 0.368408 96.0008C0.368408 97.0825 0.805619 98.1396 1.5692 98.9052C2.33483 99.6688 3.39193 100.106 4.47367 100.106Z"
                fill="#039349" />
              <path fill-rule="evenodd" clip-rule="evenodd"
                d="M49.6214 100.106H49.6419C51.9044 100.106 53.7369 98.2669 53.7369 96.0008C53.7369 93.7347 51.9044 91.8955 49.6419 91.8955H49.6214C47.3609 91.8955 45.5264 93.7347 45.5264 96.0008C45.5264 98.2669 47.3609 100.106 49.6214 100.106Z"
                fill="#039349" />
              <path fill-rule="evenodd" clip-rule="evenodd"
                d="M27.7266 100.106H27.7471C30.0075 100.106 31.8421 98.2669 31.8421 96.0008C31.8421 93.7347 30.0075 91.8955 27.7471 91.8955H27.7266C25.4662 91.8955 23.6316 93.7347 23.6316 96.0008C23.6316 98.2669 25.4662 100.106 27.7266 100.106Z"
                fill="#039349" />
              <path fill-rule="evenodd" clip-rule="evenodd"
                d="M72.8947 100.106C73.9744 100.106 75.0335 99.6688 75.7971 98.9052C76.5627 98.1396 77 97.0825 77 96.0008C77 94.9211 76.5627 93.8619 75.7971 93.0983C75.0335 92.3327 73.9744 91.8955 72.8947 91.8955C71.813 91.8955 70.7558 92.3327 69.9902 93.0983C69.2266 93.8619 68.7894 94.9211 68.7894 96.0008C68.7894 97.0825 69.2266 98.1396 69.9902 98.9052C70.7558 99.6688 71.813 100.106 72.8947 100.106Z"
                fill="#039349" />
              <path fill-rule="evenodd" clip-rule="evenodd"
                d="M96.1579 100.106C97.2396 100.106 98.2967 99.6688 99.0623 98.9052C99.8259 98.1396 100.263 97.0825 100.263 96.0008C100.263 94.9211 99.8259 93.8619 99.0623 93.0983C98.2967 92.3327 97.2396 91.8955 96.1579 91.8955C95.0782 91.8955 94.019 92.3327 93.2555 93.0983C92.4898 93.8619 92.0526 94.9211 92.0526 96.0008C92.0526 97.0825 92.4898 98.1396 93.2555 98.9052C94.019 99.6688 95.0782 100.106 96.1579 100.106Z"
                fill="#039349" />
              <path fill-rule="evenodd" clip-rule="evenodd"
                d="M141.306 100.106H141.326C143.589 100.106 145.421 98.2669 145.421 96.0008C145.421 93.7347 143.589 91.8955 141.326 91.8955H141.306C139.045 91.8955 137.211 93.7347 137.211 96.0008C137.211 98.2669 139.045 100.106 141.306 100.106Z"
                fill="#039349" />
              <path fill-rule="evenodd" clip-rule="evenodd"
                d="M118.042 100.106H118.063C120.323 100.106 122.158 98.2669 122.158 96.0008C122.158 93.7347 120.323 91.8955 118.063 91.8955H118.042C115.782 91.8955 113.947 93.7347 113.947 96.0008C113.947 98.2669 115.782 100.106 118.042 100.106Z"
                fill="#039349" />
              <mask id="mask5_6_1565" style="mask-type:luminance" maskUnits="userSpaceOnUse" x="159" y="91" width="10"
                height="10">
                <path fill-rule="evenodd" clip-rule="evenodd" d="M159.519 91.3008H168.277V100.059H159.519V91.3008Z"
                  fill="white" />
              </mask>
              <g mask="url(#mask5_6_1565)">
                <path fill-rule="evenodd" clip-rule="evenodd"
                  d="M163.898 100.059C165.05 100.059 166.18 99.5923 166.994 98.7778C167.811 97.9612 168.277 96.8336 168.277 95.6797C168.277 94.5281 167.811 93.3983 166.994 92.5838C166.18 91.7671 165.05 91.3008 163.898 91.3008C162.744 91.3008 161.617 91.7671 160.8 92.5838C159.986 93.3983 159.519 94.5281 159.519 95.6797C159.519 96.8336 159.986 97.9612 160.8 98.7778C161.617 99.5923 162.744 100.059 163.898 100.059Z"
                  fill="#039349" />
              </g>
              <path fill-rule="evenodd" clip-rule="evenodd"
                d="M4.47367 117.895C5.55336 117.895 6.61251 117.458 7.37609 116.692C8.14172 115.929 8.57893 114.872 8.57893 113.79C8.57893 112.71 8.14172 111.651 7.37609 110.887C6.61251 110.122 5.55336 109.685 4.47367 109.685C3.39193 109.685 2.33483 110.122 1.5692 110.887C0.805619 111.651 0.368408 112.71 0.368408 113.79C0.368408 114.872 0.805619 115.929 1.5692 116.692C2.33483 117.458 3.39193 117.895 4.47367 117.895Z"
                fill="#039349" />
              <path fill-rule="evenodd" clip-rule="evenodd"
                d="M49.6214 117.895H49.6419C51.9044 117.895 53.7369 116.056 53.7369 113.79C53.7369 111.524 51.9044 109.685 49.6419 109.685H49.6214C47.3609 109.685 45.5264 111.524 45.5264 113.79C45.5264 116.056 47.3609 117.895 49.6214 117.895Z"
                fill="#039349" />
              <path fill-rule="evenodd" clip-rule="evenodd"
                d="M27.7266 117.895H27.7471C30.0075 117.895 31.8421 116.056 31.8421 113.79C31.8421 111.524 30.0075 109.685 27.7471 109.685H27.7266C25.4662 109.685 23.6316 111.524 23.6316 113.79C23.6316 116.056 25.4662 117.895 27.7266 117.895Z"
                fill="#039349" />
              <path fill-rule="evenodd" clip-rule="evenodd"
                d="M72.8947 117.895C73.9744 117.895 75.0335 117.458 75.7971 116.692C76.5627 115.929 77 114.872 77 113.79C77 112.71 76.5627 111.651 75.7971 110.887C75.0335 110.122 73.9744 109.685 72.8947 109.685C71.813 109.685 70.7558 110.122 69.9902 110.887C69.2266 111.651 68.7894 112.71 68.7894 113.79C68.7894 114.872 69.2266 115.929 69.9902 116.692C70.7558 117.458 71.813 117.895 72.8947 117.895Z"
                fill="#039349" />
              <path fill-rule="evenodd" clip-rule="evenodd"
                d="M96.1579 117.895C97.2396 117.895 98.2967 117.458 99.0623 116.692C99.8259 115.929 100.263 114.872 100.263 113.79C100.263 112.71 99.8259 111.651 99.0623 110.887C98.2967 110.122 97.2396 109.685 96.1579 109.685C95.0782 109.685 94.019 110.122 93.2555 110.887C92.4898 111.651 92.0526 112.71 92.0526 113.79C92.0526 114.872 92.4898 115.929 93.2555 116.692C94.019 117.458 95.0782 117.895 96.1579 117.895Z"
                fill="#039349" />
              <path fill-rule="evenodd" clip-rule="evenodd"
                d="M141.306 117.895H141.326C143.589 117.895 145.421 116.056 145.421 113.79C145.421 111.524 143.589 109.685 141.326 109.685H141.306C139.045 109.685 137.211 111.524 137.211 113.79C137.211 116.056 139.045 117.895 141.306 117.895Z"
                fill="#039349" />
              <path fill-rule="evenodd" clip-rule="evenodd"
                d="M118.042 117.895H118.063C120.323 117.895 122.158 116.056 122.158 113.79C122.158 111.524 120.323 109.685 118.063 109.685H118.042C115.782 109.685 113.947 111.524 113.947 113.79C113.947 116.056 115.782 117.895 118.042 117.895Z"
                fill="#039349" />
              <mask id="mask6_6_1565" style="mask-type:luminance" maskUnits="userSpaceOnUse" x="159" y="109" width="10"
                height="10">
                <path fill-rule="evenodd" clip-rule="evenodd" d="M159.519 109.562H168.277V118.32H159.519V109.562Z"
                  fill="white" />
              </mask>
              <g mask="url(#mask6_6_1565)">
                <path fill-rule="evenodd" clip-rule="evenodd"
                  d="M163.898 118.32C165.05 118.32 166.18 117.854 166.994 117.037C167.811 116.223 168.277 115.095 168.277 113.941C168.277 112.79 167.811 111.66 166.994 110.846C166.18 110.029 165.05 109.562 163.898 109.562C162.744 109.562 161.617 110.029 160.8 110.846C159.986 111.66 159.519 112.79 159.519 113.941C159.519 115.095 159.986 116.223 160.8 117.037C161.617 117.854 162.744 118.32 163.898 118.32Z"
                  fill="#039349" />
              </g>
              <path fill-rule="evenodd" clip-rule="evenodd"
                d="M4.47367 135.684C5.55336 135.684 6.61251 135.247 7.37609 134.483C8.14172 133.718 8.57893 132.661 8.57893 131.579C8.57893 130.499 8.14172 129.44 7.37609 128.676C6.61251 127.911 5.55336 127.474 4.47367 127.474C3.39193 127.474 2.33483 127.911 1.5692 128.676C0.805619 129.44 0.368408 130.499 0.368408 131.579C0.368408 132.661 0.805619 133.718 1.5692 134.483C2.33483 135.247 3.39193 135.684 4.47367 135.684Z"
                fill="#039349" />
              <path fill-rule="evenodd" clip-rule="evenodd"
                d="M49.6214 135.684H49.6419C51.9044 135.684 53.7369 133.847 53.7369 131.579C53.7369 129.313 51.9044 127.474 49.6419 127.474H49.6214C47.3609 127.474 45.5264 129.313 45.5264 131.579C45.5264 133.847 47.3609 135.684 49.6214 135.684Z"
                fill="#039349" />
              <path fill-rule="evenodd" clip-rule="evenodd"
                d="M27.7266 135.684H27.7471C30.0075 135.684 31.8421 133.847 31.8421 131.579C31.8421 129.313 30.0075 127.474 27.7471 127.474H27.7266C25.4662 127.474 23.6316 129.313 23.6316 131.579C23.6316 133.847 25.4662 135.684 27.7266 135.684Z"
                fill="#039349" />
              <path fill-rule="evenodd" clip-rule="evenodd"
                d="M72.8947 135.684C73.9744 135.684 75.0335 135.247 75.7971 134.483C76.5627 133.718 77 132.661 77 131.579C77 130.499 76.5627 129.44 75.7971 128.676C75.0335 127.911 73.9744 127.474 72.8947 127.474C71.813 127.474 70.7558 127.911 69.9902 128.676C69.2266 129.44 68.7894 130.499 68.7894 131.579C68.7894 132.661 69.2266 133.718 69.9902 134.483C70.7558 135.247 71.813 135.684 72.8947 135.684Z"
                fill="#039349" />
              <path fill-rule="evenodd" clip-rule="evenodd"
                d="M96.1579 135.684C97.2396 135.684 98.2967 135.247 99.0623 134.483C99.8259 133.718 100.263 132.661 100.263 131.579C100.263 130.499 99.8259 129.44 99.0623 128.676C98.2967 127.911 97.2396 127.474 96.1579 127.474C95.0782 127.474 94.019 127.911 93.2555 128.676C92.4898 129.44 92.0526 130.499 92.0526 131.579C92.0526 132.661 92.4898 133.718 93.2555 134.483C94.019 135.247 95.0782 135.684 96.1579 135.684Z"
                fill="#039349" />
              <path fill-rule="evenodd" clip-rule="evenodd"
                d="M141.306 135.684H141.326C143.589 135.684 145.421 133.847 145.421 131.579C145.421 129.313 143.589 127.474 141.326 127.474H141.306C139.045 127.474 137.211 129.313 137.211 131.579C137.211 133.847 139.045 135.684 141.306 135.684Z"
                fill="#039349" />
              <path fill-rule="evenodd" clip-rule="evenodd"
                d="M118.042 135.684H118.063C120.323 135.684 122.158 133.847 122.158 131.579C122.158 129.313 120.323 127.474 118.063 127.474H118.042C115.782 127.474 113.947 129.313 113.947 131.579C113.947 133.847 115.782 135.684 118.042 135.684Z"
                fill="#039349" />
              <mask id="mask7_6_1565" style="mask-type:luminance" maskUnits="userSpaceOnUse" x="159" y="127" width="10"
                height="10">
                <path fill-rule="evenodd" clip-rule="evenodd" d="M159.519 127.823H168.277V136.581H159.519V127.823Z"
                  fill="white" />
              </mask>
              <g mask="url(#mask7_6_1565)">
                <path fill-rule="evenodd" clip-rule="evenodd"
                  d="M163.898 136.581C165.05 136.581 166.18 136.115 166.994 135.3C167.811 134.484 168.277 133.356 168.277 132.202C168.277 131.051 167.811 129.921 166.994 129.106C166.18 128.29 165.05 127.823 163.898 127.823C162.744 127.823 161.617 128.29 160.8 129.106C159.986 129.921 159.519 131.051 159.519 132.202C159.519 133.356 159.986 134.484 160.8 135.3C161.617 136.115 162.744 136.581 163.898 136.581Z"
                  fill="#039349" />
              </g>
              <mask id="mask8_6_1565" style="mask-type:luminance" maskUnits="userSpaceOnUse" x="0" y="145" width="9"
                height="9">
                <path fill-rule="evenodd" clip-rule="evenodd" d="M0.368774 145.264H8.5793V153.474H0.368774V145.264Z"
                  fill="white" />
              </mask>
              <g mask="url(#mask8_6_1565)">
                <path fill-rule="evenodd" clip-rule="evenodd"
                  d="M4.47404 153.474C5.55372 153.474 6.61288 153.037 7.37646 152.271C8.14209 151.508 8.5793 150.449 8.5793 149.369C8.5793 148.287 8.14209 147.23 7.37646 146.464C6.61288 145.701 5.55372 145.264 4.47404 145.264C3.3923 145.264 2.3352 145.701 1.56956 146.464C0.805985 147.23 0.368774 148.287 0.368774 149.369C0.368774 150.449 0.805985 151.508 1.56956 152.271C2.3352 153.037 3.3923 153.474 4.47404 153.474Z"
                  fill="#039349" />
              </g>
              <mask id="mask9_6_1565" style="mask-type:luminance" maskUnits="userSpaceOnUse" x="45" y="145" width="10"
                height="9">
                <path fill-rule="evenodd" clip-rule="evenodd" d="M45.516 145.264H54.2958V153.474H45.516V145.264Z"
                  fill="white" />
              </mask>
              <g mask="url(#mask9_6_1565)">
                <path fill-rule="evenodd" clip-rule="evenodd"
                  d="M49.8949 153.474H49.9168C52.3362 153.474 54.2958 151.635 54.2958 149.369C54.2958 147.101 52.3362 145.264 49.9168 145.264H49.8949C47.4778 145.264 45.516 147.101 45.516 149.369C45.516 151.635 47.4778 153.474 49.8949 153.474Z"
                  fill="#039349" />
              </g>
              <mask id="mask10_6_1565" style="mask-type:luminance" maskUnits="userSpaceOnUse" x="22" y="145" width="10"
                height="9">
                <path fill-rule="evenodd" clip-rule="evenodd" d="M22.9373 145.264H31.717V153.474H22.9373V145.264Z"
                  fill="white" />
              </mask>
              <g mask="url(#mask10_6_1565)">
                <path fill-rule="evenodd" clip-rule="evenodd"
                  d="M27.3162 153.474H27.3381C29.7553 153.474 31.717 151.635 31.717 149.369C31.717 147.101 29.7553 145.264 27.3381 145.264H27.3162C24.899 145.264 22.9373 147.101 22.9373 149.369C22.9373 151.635 24.899 153.474 27.3162 153.474Z"
                  fill="#039349" />
              </g>
              <mask id="mask11_6_1565" style="mask-type:luminance" maskUnits="userSpaceOnUse" x="68" y="145" width="9"
                height="9">
                <path fill-rule="evenodd" clip-rule="evenodd" d="M68.1071 145.264H76.865V153.474H68.1071V145.264Z"
                  fill="white" />
              </mask>
              <g mask="url(#mask11_6_1565)">
                <path fill-rule="evenodd" clip-rule="evenodd"
                  d="M72.486 153.474C73.6377 153.474 74.7674 153.037 75.5819 152.271C76.3986 151.508 76.865 150.449 76.865 149.369C76.865 148.287 76.3986 147.23 75.5819 146.464C74.7674 145.701 73.6377 145.264 72.486 145.264C71.3322 145.264 70.2046 145.701 69.3879 146.464C68.5734 147.23 68.1071 148.287 68.1071 149.369C68.1071 150.449 68.5734 151.508 69.3879 152.271C70.2046 153.037 71.3322 153.474 72.486 153.474Z"
                  fill="#039349" />
              </g>
              <mask id="mask12_6_1565" style="mask-type:luminance" maskUnits="userSpaceOnUse" x="91" y="145" width="9"
                height="9">
                <path fill-rule="evenodd" clip-rule="evenodd" d="M91.2332 145.264H99.991V153.474H91.2332V145.264Z"
                  fill="white" />
              </mask>
              <g mask="url(#mask12_6_1565)">
                <path fill-rule="evenodd" clip-rule="evenodd"
                  d="M95.6121 153.474C96.766 153.474 97.8935 153.037 98.7102 152.271C99.5247 151.508 99.991 150.449 99.991 149.369C99.991 148.287 99.5247 147.23 98.7102 146.464C97.8935 145.701 96.766 145.264 95.6121 145.264C94.4604 145.264 93.3307 145.701 92.5162 146.464C91.6995 147.23 91.2332 148.287 91.2332 149.369C91.2332 150.449 91.6995 151.508 92.5162 152.271C93.3307 153.037 94.4604 153.474 95.6121 153.474Z"
                  fill="#039349" />
              </g>
              <mask id="mask13_6_1565" style="mask-type:luminance" maskUnits="userSpaceOnUse" x="136" y="145" width="10"
                height="9">
                <path fill-rule="evenodd" clip-rule="evenodd" d="M136.381 145.264H145.161V153.474H136.381V145.264Z"
                  fill="white" />
              </mask>
              <g mask="url(#mask13_6_1565)">
                <path fill-rule="evenodd" clip-rule="evenodd"
                  d="M140.76 153.474H140.782C143.202 153.474 145.161 151.635 145.161 149.369C145.161 147.101 143.202 145.264 140.782 145.264H140.76C138.343 145.264 136.381 147.101 136.381 149.369C136.381 151.635 138.343 153.474 140.76 153.474Z"
                  fill="#039349" />
              </g>
              <mask id="mask14_6_1565" style="mask-type:luminance" maskUnits="userSpaceOnUse" x="113" y="145" width="10"
                height="9">
                <path fill-rule="evenodd" clip-rule="evenodd" d="M113.802 145.264H122.582V153.474H113.802V145.264Z"
                  fill="white" />
              </mask>
              <g mask="url(#mask14_6_1565)">
                <path fill-rule="evenodd" clip-rule="evenodd"
                  d="M118.181 153.474H118.203C120.62 153.474 122.582 151.635 122.582 149.369C122.582 147.101 120.62 145.264 118.203 145.264H118.181C115.764 145.264 113.802 147.101 113.802 149.369C113.802 151.635 115.764 153.474 118.181 153.474Z"
                  fill="#039349" />
              </g>
              <mask id="mask15_6_1565" style="mask-type:luminance" maskUnits="userSpaceOnUse" x="159" y="145" width="10"
                height="9">
                <path fill-rule="evenodd" clip-rule="evenodd" d="M159.519 145.264H168.277V153.474H159.519V145.264Z"
                  fill="white" />
              </mask>
              <g mask="url(#mask15_6_1565)">
                <path fill-rule="evenodd" clip-rule="evenodd"
                  d="M163.898 153.474C165.05 153.474 166.18 153.037 166.994 152.271C167.811 151.508 168.277 150.449 168.277 149.369C168.277 148.287 167.811 147.23 166.994 146.464C166.18 145.701 165.05 145.264 163.898 145.264C162.744 145.264 161.617 145.701 160.8 146.464C159.986 147.23 159.519 148.287 159.519 149.369C159.519 150.449 159.986 151.508 160.8 152.271C161.617 153.037 162.744 153.474 163.898 153.474Z"
                  fill="#039349" />
              </g>
            </svg>