<svg width="42" height="36" viewBox="0 0 42 36" fill="none" xmlns="http://www.w3.org/2000/svg">
<path opacity="0.4" d="M38.9557 25.5089L32.0719 22.9242C31.7686 22.8109 31.5507 22.534 31.5055 22.2042L31.1526 19.6519C33.6164 18.2154 35.1431 15.5226 35.1504 12.6005V7.26543C35.1477 4.82211 33.38 2.7651 31.0315 2.47214L30.2707 0.900771C29.906 0.167143 29.0746 -0.178021 28.3198 0.0907884L23.6257 1.82325C22.1721 2.41492 20.9737 3.52778 20.25 4.95788C22.5186 6.90721 23.8282 9.79919 23.8226 12.8471V14.4005C24.0273 16.7494 24.7743 19.0135 26.001 21.0027C26.4173 21.6475 26.5453 22.4459 26.3524 23.1948C26.1595 23.9437 25.6643 24.5709 24.9929 24.9167C24.713 25.0541 24.4238 25.1702 24.1276 25.2641L25.3283 25.6358C27.5447 26.3137 29.0615 28.4216 29.0508 30.8089V35.1C29.0479 35.4073 28.9937 35.7118 28.8905 36H40.3786C40.8599 36 41.25 35.5971 41.25 35.1V28.8902C41.2467 27.3779 40.3308 26.0282 38.9557 25.5089Z" fill="#F58121"/>
<path d="M26.35 36H1.15003C0.652979 36 0.250036 35.5907 0.250036 35.0857V30.7264C0.242941 29.1087 1.28869 27.6809 2.81593 27.2229L8.78921 25.4025C9.12414 25.2994 9.36986 25.0084 9.41921 24.6565L9.56501 23.6279C5.70852 24.2231 3.54583 23.1534 3.44503 23.104C3.21387 22.9868 3.04346 22.7743 2.97716 22.5206C2.91086 22.267 2.95506 21.9966 3.09853 21.7783C4.56741 19.46 5.44434 16.8063 5.65002 14.0572V12.2286C5.65002 9.95097 6.5793 7.77522 8.21665 6.2193C9.85401 4.66338 12.0529 3.86648 14.29 4.01832C18.6063 4.38387 21.9084 8.07952 21.85 12.4791V14.0572C22.0549 16.806 22.9308 19.4597 24.3988 21.7783C24.5422 21.9966 24.5864 22.267 24.5201 22.5206C24.4538 22.7743 24.2834 22.9868 24.0523 23.104C23.9533 23.1534 21.7906 24.2222 17.9323 23.6279L18.0781 24.6565C18.1274 25.0084 18.3732 25.2994 18.7081 25.4025L24.6841 27.2229C26.2113 27.6809 27.2571 29.1087 27.25 30.7264V35.0857C27.25 35.5907 26.847 36 26.35 36Z" fill="#F58121"/>
</svg>
