<svg width="15" height="17" viewBox="0 0 15 17" fill="none" xmlns="http://www.w3.org/2000/svg">
<mask id="path-1-inside-1_519_99" fill="white">
<path fill-rule="evenodd" clip-rule="evenodd" d="M10.6022 8.25596L13.2047 14.5H12.048L11.3945 12.939H8.64754L7.99982 14.5H6.84319L9.44561 8.25596H10.6022ZM2.04972 7.8265L3.46431 9.62888L2.59175 9.69851C2.79162 10.6979 3.31577 11.6261 4.11264 12.3566C4.70109 12.8961 5.40739 13.3001 6.18155 13.5466L5.94004 14.204C5.05679 13.9228 4.25056 13.4616 3.57942 12.8463C2.65549 11.9993 2.05323 10.9194 1.83442 9.75917L1 9.8254L2.04972 7.8265ZM10.0239 9.64526L9.08706 11.8983H10.9608L10.0239 9.64526ZM4.80423 2.62969C4.94533 2.71825 5.19443 2.90101 5.34211 2.95466C5.53063 3.02326 5.73638 2.74035 5.90555 2.85032C6.21659 3.05252 5.7569 3.26051 5.77374 3.4563C5.77993 3.52886 5.89877 3.69277 5.86839 3.75365C5.81497 3.86123 5.64425 3.88408 5.59974 4.0021C5.53373 4.17808 6.05575 4.33026 6.14575 4.42274C6.2586 4.539 6.02749 4.69216 6.0033 4.80736C6.00039 4.82177 6.21563 4.91491 6.2344 4.92814C6.34356 5.00506 6.44615 5.14278 6.57622 5.19042C6.75855 5.25715 6.95055 5.18625 7.13675 5.20891C7.40502 5.24152 7.72438 5.56335 8.0031 5.39728C8.16491 5.30089 7.93207 4.9981 8.08652 4.94998C8.45311 4.83573 8.37995 5.19138 8.50963 5.25497C8.52396 5.26202 9.06668 5.20232 9.12165 5.18552C9.17759 5.16837 9.13481 5.04564 9.1712 4.99639C9.26701 4.86612 9.44895 4.65696 9.60573 4.57957C9.83238 4.46783 10.4856 4.64396 10.5243 4.912C10.5361 4.99274 10.3778 5.00605 10.3188 5.03692C10.1636 5.11811 9.93303 5.31237 9.86703 5.46192C9.83625 5.53189 9.9278 5.62944 9.94136 5.70103C9.95452 5.77225 9.87729 5.91567 9.84128 5.97972C9.77896 6.09017 9.55502 5.98919 9.50334 6.16153C9.4856 6.22045 9.50637 6.2786 9.53672 6.33617L9.60159 6.4506C9.64191 6.52645 9.66494 6.60149 9.60205 6.67617C9.54844 6.73971 9.38779 6.47395 9.36591 6.42362L9.35779 6.40357C9.35695 6.40136 9.35585 6.3986 9.35372 6.39359C9.35082 6.38672 9.34791 6.3799 9.34482 6.37311C9.3421 6.36706 9.33843 6.35821 9.33359 6.35336C9.27475 6.29488 9.01403 6.43869 8.961 6.31045C8.86751 6.08431 8.95655 6.01364 9.04558 5.821C9.06261 5.78401 8.9579 5.80718 8.91377 5.80226C8.82686 5.79256 8.73841 5.79284 8.6546 5.76827C8.4715 5.71461 8.39253 5.41522 8.21504 5.60077C8.00038 5.82518 8.53343 6.41271 8.36698 6.65792C8.31696 6.73172 8.24067 6.77048 8.15808 6.80072L7.99042 6.85772C7.93568 6.87817 7.88406 6.90271 7.84148 6.93918C7.76212 7.00703 7.81748 7.098 7.74025 7.17308C7.66573 7.24547 7.55966 7.27884 7.48398 7.35182C7.1772 7.6477 6.89635 7.96285 6.58569 8.25209C6.40743 8.41805 6.12774 8.40743 5.97755 8.61777C5.91928 8.69938 6.07665 8.97107 6.06929 9.09584C6.06174 9.22618 5.95838 9.35869 5.94019 9.4932C5.92877 9.57779 6.00174 9.71656 5.96496 9.78918C5.88831 9.94018 5.62431 10.048 5.49443 10.1583C5.38623 10.2502 5.31578 10.4633 5.12242 10.4338C4.76763 10.3795 4.80847 9.83364 4.70144 9.60299C4.6455 9.4827 4.52511 9.38845 4.46008 9.2683C4.3602 9.08329 4.38091 8.86982 4.29362 8.68313C4.18775 8.45685 4.01684 8.27374 3.96071 8.02895C3.86955 7.63031 4.00426 7.32066 3.94058 6.95515C3.93767 6.9383 3.90283 6.82799 3.87341 6.82467C3.76812 6.81282 3.64115 6.99039 3.55134 7.02666C3.41179 7.08298 3.09765 6.88852 2.99777 6.8226C2.82067 6.70558 2.81428 6.66492 2.94319 6.50482C2.98132 6.45755 2.74983 6.31715 2.7237 6.29119C2.7208 6.28827 2.73241 6.26708 2.73241 6.26708C2.77209 6.19433 2.98152 6.09539 3.06416 6.05303C3.16424 6.00174 3.34792 6.10068 3.46773 6.06947C3.5467 5.97425 3.32624 5.61416 3.21727 5.47602C3.16772 5.41306 3.04443 5.35643 3.0632 5.26271C3.11339 5.01174 3.27009 5.00944 3.43796 5.03281L3.55048 5.04976C3.64389 5.06297 3.73421 5.06881 3.8051 5.02905C4.08672 4.87101 4.11014 4.54588 4.27447 4.32784C4.34608 4.23279 4.57099 4.09905 4.60467 3.99028C4.64358 3.86451 4.3906 3.75011 4.34782 3.64066C4.26053 3.41628 4.34376 3.13322 4.30931 3.03549C4.26537 2.91016 4.10104 2.86827 4.11517 2.71804C4.1384 2.47233 4.64822 2.53179 4.80423 2.62969ZM9.22572 2.5C10.0978 2.80942 10.8861 3.29628 11.5336 3.93286C12.4916 4.87464 13.068 6.07323 13.1935 7.33705L14 7.3122L12.8379 9.25784L11.5279 7.3899L12.435 7.36064C12.3184 6.2625 11.8144 5.22324 10.9822 4.40509C10.4145 3.84695 9.72387 3.42043 8.95951 3.14923L9.22572 2.5Z"/>
</mask>
<path fill-rule="evenodd" clip-rule="evenodd" d="M10.6022 8.25596L13.2047 14.5H12.048L11.3945 12.939H8.64754L7.99982 14.5H6.84319L9.44561 8.25596H10.6022ZM2.04972 7.8265L3.46431 9.62888L2.59175 9.69851C2.79162 10.6979 3.31577 11.6261 4.11264 12.3566C4.70109 12.8961 5.40739 13.3001 6.18155 13.5466L5.94004 14.204C5.05679 13.9228 4.25056 13.4616 3.57942 12.8463C2.65549 11.9993 2.05323 10.9194 1.83442 9.75917L1 9.8254L2.04972 7.8265ZM10.0239 9.64526L9.08706 11.8983H10.9608L10.0239 9.64526ZM4.80423 2.62969C4.94533 2.71825 5.19443 2.90101 5.34211 2.95466C5.53063 3.02326 5.73638 2.74035 5.90555 2.85032C6.21659 3.05252 5.7569 3.26051 5.77374 3.4563C5.77993 3.52886 5.89877 3.69277 5.86839 3.75365C5.81497 3.86123 5.64425 3.88408 5.59974 4.0021C5.53373 4.17808 6.05575 4.33026 6.14575 4.42274C6.2586 4.539 6.02749 4.69216 6.0033 4.80736C6.00039 4.82177 6.21563 4.91491 6.2344 4.92814C6.34356 5.00506 6.44615 5.14278 6.57622 5.19042C6.75855 5.25715 6.95055 5.18625 7.13675 5.20891C7.40502 5.24152 7.72438 5.56335 8.0031 5.39728C8.16491 5.30089 7.93207 4.9981 8.08652 4.94998C8.45311 4.83573 8.37995 5.19138 8.50963 5.25497C8.52396 5.26202 9.06668 5.20232 9.12165 5.18552C9.17759 5.16837 9.13481 5.04564 9.1712 4.99639C9.26701 4.86612 9.44895 4.65696 9.60573 4.57957C9.83238 4.46783 10.4856 4.64396 10.5243 4.912C10.5361 4.99274 10.3778 5.00605 10.3188 5.03692C10.1636 5.11811 9.93303 5.31237 9.86703 5.46192C9.83625 5.53189 9.9278 5.62944 9.94136 5.70103C9.95452 5.77225 9.87729 5.91567 9.84128 5.97972C9.77896 6.09017 9.55502 5.98919 9.50334 6.16153C9.4856 6.22045 9.50637 6.2786 9.53672 6.33617L9.60159 6.4506C9.64191 6.52645 9.66494 6.60149 9.60205 6.67617C9.54844 6.73971 9.38779 6.47395 9.36591 6.42362L9.35779 6.40357C9.35695 6.40136 9.35585 6.3986 9.35372 6.39359C9.35082 6.38672 9.34791 6.3799 9.34482 6.37311C9.3421 6.36706 9.33843 6.35821 9.33359 6.35336C9.27475 6.29488 9.01403 6.43869 8.961 6.31045C8.86751 6.08431 8.95655 6.01364 9.04558 5.821C9.06261 5.78401 8.9579 5.80718 8.91377 5.80226C8.82686 5.79256 8.73841 5.79284 8.6546 5.76827C8.4715 5.71461 8.39253 5.41522 8.21504 5.60077C8.00038 5.82518 8.53343 6.41271 8.36698 6.65792C8.31696 6.73172 8.24067 6.77048 8.15808 6.80072L7.99042 6.85772C7.93568 6.87817 7.88406 6.90271 7.84148 6.93918C7.76212 7.00703 7.81748 7.098 7.74025 7.17308C7.66573 7.24547 7.55966 7.27884 7.48398 7.35182C7.1772 7.6477 6.89635 7.96285 6.58569 8.25209C6.40743 8.41805 6.12774 8.40743 5.97755 8.61777C5.91928 8.69938 6.07665 8.97107 6.06929 9.09584C6.06174 9.22618 5.95838 9.35869 5.94019 9.4932C5.92877 9.57779 6.00174 9.71656 5.96496 9.78918C5.88831 9.94018 5.62431 10.048 5.49443 10.1583C5.38623 10.2502 5.31578 10.4633 5.12242 10.4338C4.76763 10.3795 4.80847 9.83364 4.70144 9.60299C4.6455 9.4827 4.52511 9.38845 4.46008 9.2683C4.3602 9.08329 4.38091 8.86982 4.29362 8.68313C4.18775 8.45685 4.01684 8.27374 3.96071 8.02895C3.86955 7.63031 4.00426 7.32066 3.94058 6.95515C3.93767 6.9383 3.90283 6.82799 3.87341 6.82467C3.76812 6.81282 3.64115 6.99039 3.55134 7.02666C3.41179 7.08298 3.09765 6.88852 2.99777 6.8226C2.82067 6.70558 2.81428 6.66492 2.94319 6.50482C2.98132 6.45755 2.74983 6.31715 2.7237 6.29119C2.7208 6.28827 2.73241 6.26708 2.73241 6.26708C2.77209 6.19433 2.98152 6.09539 3.06416 6.05303C3.16424 6.00174 3.34792 6.10068 3.46773 6.06947C3.5467 5.97425 3.32624 5.61416 3.21727 5.47602C3.16772 5.41306 3.04443 5.35643 3.0632 5.26271C3.11339 5.01174 3.27009 5.00944 3.43796 5.03281L3.55048 5.04976C3.64389 5.06297 3.73421 5.06881 3.8051 5.02905C4.08672 4.87101 4.11014 4.54588 4.27447 4.32784C4.34608 4.23279 4.57099 4.09905 4.60467 3.99028C4.64358 3.86451 4.3906 3.75011 4.34782 3.64066C4.26053 3.41628 4.34376 3.13322 4.30931 3.03549C4.26537 2.91016 4.10104 2.86827 4.11517 2.71804C4.1384 2.47233 4.64822 2.53179 4.80423 2.62969ZM9.22572 2.5C10.0978 2.80942 10.8861 3.29628 11.5336 3.93286C12.4916 4.87464 13.068 6.07323 13.1935 7.33705L14 7.3122L12.8379 9.25784L11.5279 7.3899L12.435 7.36064C12.3184 6.2625 11.8144 5.22324 10.9822 4.40509C10.4145 3.84695 9.72387 3.42043 8.95951 3.14923L9.22572 2.5Z" fill="white" stroke="white" stroke-width="2" mask="url(#path-1-inside-1_519_99)"/>
</svg>
